<svg width="239" height="59" viewBox="0 0 239 59" fill="none" xmlns="http://www.w3.org/2000/svg">
<path d="M0.0332501 58.296V31.928C0.0332501 26.424 0.48125 24.248 2.20925 21.56C4.64125 17.72 9.24925 15.288 13.9213 15.288C21.6653 15.288 28.0653 21.688 28.0653 29.368C28.0653 36.984 21.7293 43.384 14.3053 43.384C11.4253 43.384 8.80125 42.424 6.30525 40.504V58.296H0.0332501ZM13.8573 21.432C9.56925 21.432 6.11325 24.952 6.11325 29.304C6.11325 33.912 9.37725 37.24 13.8573 37.24C18.3373 37.24 21.7933 33.848 21.7933 29.368C21.7933 24.952 18.2733 21.432 13.8573 21.432ZM39.7013 43H33.4293V15.672H39.7013V43ZM36.5653 3.768C38.8053 3.768 40.4693 5.432 40.4693 7.672C40.4693 9.784 38.6133 11.576 36.5013 11.576C34.3893 11.576 32.6613 9.784 32.6613 7.672C32.6613 5.56 34.4533 3.768 36.5653 3.768ZM73.1663 43H66.8943V40.504C64.3983 42.424 61.7743 43.384 58.8943 43.384C51.4703 43.384 45.1343 36.984 45.1343 29.368C45.1343 21.688 51.5343 15.288 59.2783 15.288C63.9503 15.288 68.5583 17.72 70.9903 21.56C72.7183 24.248 73.1663 26.424 73.1663 31.928V43ZM59.4062 21.432C54.9263 21.432 51.4062 24.888 51.4062 29.368C51.4062 33.784 54.8623 37.24 59.3423 37.24C63.6943 37.24 67.1503 33.912 67.1503 29.56C67.1503 24.952 63.8223 21.432 59.4062 21.432ZM95.8743 43H82.4983C80.5143 43 79.4263 42.744 78.5303 41.976C77.6983 41.208 77.1223 39.992 77.1223 38.904C77.1223 38.008 77.7623 36.536 78.5943 35.384L88.5143 21.688H77.8903V15.672H90.7543C92.6743 15.672 93.5703 15.8 94.4023 16.184C95.6183 16.76 96.5143 18.232 96.5143 19.64C96.5143 20.728 96.0663 21.88 94.9783 23.352L85.1863 36.984H95.8743V43ZM117.374 43H103.998C102.014 43 100.926 42.744 100.03 41.976C99.1983 41.208 98.6223 39.992 98.6223 38.904C98.6223 38.008 99.2623 36.536 100.094 35.384L110.014 21.688H99.3903V15.672H112.254C114.174 15.672 115.07 15.8 115.902 16.184C117.118 16.76 118.014 18.232 118.014 19.64C118.014 20.728 117.566 21.88 116.478 23.352L106.686 36.984H117.374V43ZM148.666 43H142.394V40.504C139.898 42.424 137.274 43.384 134.394 43.384C126.97 43.384 120.634 36.984 120.634 29.368C120.634 21.688 127.034 15.288 134.778 15.288C139.45 15.288 144.058 17.72 146.49 21.56C148.218 24.248 148.666 26.424 148.666 31.928V43ZM134.906 21.432C130.426 21.432 126.906 24.888 126.906 29.368C126.906 33.784 130.362 37.24 134.842 37.24C139.194 37.24 142.65 33.912 142.65 29.56C142.65 24.952 139.322 21.432 134.906 21.432ZM154.158 0.311996H160.43V18.168C162.926 16.248 165.55 15.288 168.43 15.288C175.854 15.288 182.19 21.688 182.19 29.304C182.19 36.984 175.79 43.384 168.046 43.384C163.374 43.384 158.766 40.952 156.334 37.112C154.606 34.424 154.158 32.248 154.158 26.744V0.311996ZM167.982 21.432C163.566 21.432 160.174 24.76 160.174 29.112C160.174 33.72 163.502 37.24 167.918 37.24C172.398 37.24 175.918 33.784 175.918 29.304C175.918 24.888 172.462 21.432 167.982 21.432ZM199.842 15.288C207.714 15.288 213.986 21.688 213.986 29.688C213.986 37.176 207.522 43.384 199.714 43.384C191.97 43.384 185.634 37.112 185.634 29.432C185.634 21.56 191.97 15.288 199.842 15.288ZM199.842 21.432C195.49 21.432 191.906 24.952 191.906 29.368C191.906 33.72 195.426 37.24 199.778 37.24C204.13 37.24 207.714 33.656 207.714 29.432C207.714 25.016 204.194 21.432 199.842 21.432ZM238.449 43H231.537L226.737 34.36L222.385 43H215.473L223.217 28.92L215.473 15.672H222.385L226.737 23.352L230.577 15.672H237.873L230.385 28.92L238.449 43Z" fill="#4989B0"/>
</svg>
